<svg width="20" height="20" viewBox="0 0 20 20" fill="none" xmlns="http://www.w3.org/2000/svg">
<g clip-path="url(#clip0_190_66)">
<mask id="mask0_190_66" style="mask-type:luminance" maskUnits="userSpaceOnUse" x="0" y="0" width="20" height="20">
<path d="M20 0H0V20H20V0Z" fill="white"/>
</mask>
<g mask="url(#mask0_190_66)">
<path fill-rule="evenodd" clip-rule="evenodd" d="M10.0082 0C4.47396 0 0 4.50694 0 10.0827C0 14.5396 2.86662 18.3123 6.84338 19.6476C7.34058 19.748 7.5227 19.4307 7.5227 19.1638C7.5227 18.93 7.50631 18.1288 7.50631 17.2939C4.72225 17.895 4.14249 16.092 4.14249 16.092C3.69508 14.9235 3.03215 14.6232 3.03215 14.6232C2.12093 14.0055 3.09852 14.0055 3.09852 14.0055C4.10931 14.0723 4.63969 15.0405 4.63969 15.0405C5.53432 16.5761 6.97593 16.1423 7.55588 15.8751C7.63865 15.224 7.90394 14.7733 8.18562 14.523C5.96514 14.2893 3.62891 13.4213 3.62891 9.54833C3.62891 8.44658 4.02633 7.54523 4.65607 6.8442C4.55672 6.59386 4.20867 5.55869 4.75564 4.17323C4.75564 4.17323 5.60069 3.90608 7.5061 5.20818C8.32188 4.98748 9.16317 4.8752 10.0082 4.87426C10.8533 4.87426 11.7147 4.99123 12.5102 5.20818C14.4158 3.90608 15.2609 4.17323 15.2609 4.17323C15.8079 5.55869 15.4596 6.59386 15.3603 6.8442C16.0066 7.54523 16.3877 8.44658 16.3877 9.54833C16.3877 13.4213 14.0514 14.2724 11.8143 14.523C12.179 14.8401 12.4937 15.441 12.4937 16.3926C12.4937 17.7447 12.4772 18.8298 12.4772 19.1635C12.4772 19.4307 12.6596 19.748 13.1566 19.6478C17.1333 18.3121 19.9999 14.5396 19.9999 10.0827C20.0163 4.50694 15.526 0 10.0082 0Z" fill="#141414"/>
</g>
</g>
<defs>
<clipPath id="clip0_190_66">
<rect width="20" height="20" fill="white"/>
</clipPath>
</defs>
</svg>
